<?xml version="1.0" standalone="no"?>
<svg version="1.0" xmlns="http://www.w3.org/2000/svg"
 width="750" height="220" viewBox="0 0 900 153"
 preserveAspectRatio="xMidYMid meet">
<g transform="translate(0.000000,153.000000) scale(0.100000,-0.100000)"
fill="#fff" stroke="none">
<path d="M1845 1490 c-87 -10 -119 -47 -113 -131 l3 -44 53 -5 c61 -6 75 -21
67 -67 -13 -76 -123 -302 -210 -433 -49 -73 -51 -75 -74 -61 -13 8 -13 27 -4
127 6 65 9 123 6 130 -7 19 -39 27 -62 15 -29 -16 -77 -13 -92 5 -16 19 1 176
30 271 21 69 17 78 -36 89 -26 5 -108 -6 -166 -22 -35 -11 -48 -60 -59 -227
-14 -222 -5 -858 13 -912 20 -58 81 -88 166 -82 75 6 123 31 135 72 5 17 6 94
2 171 -7 166 0 192 65 218 48 19 91 12 125 -19 26 -24 31 -52 42 -230 3 -60
12 -124 19 -142 27 -66 157 -96 235 -54 46 24 58 66 70 246 20 283 6 952 -21
1022 -20 53 -86 74 -194 63z"/>
<path d="M5200 1492 c-70 -5 -102 -36 -110 -104 -3 -31 -4 -61 -2 -67 2 -6 25
-11 51 -11 26 0 52 -5 59 -12 17 -17 15 -77 -3 -112 -8 -15 -15 -33 -15 -38 0
-23 -117 -243 -183 -346 -31 -48 -45 -62 -61 -60 -24 3 -25 20 -11 173 7 79 5
92 -9 104 -14 12 -24 12 -50 3 -96 -35 -116 -5 -91 138 9 52 23 117 32 143 8
26 12 54 9 62 -8 22 -69 28 -145 14 -103 -18 -113 -32 -122 -167 -18 -258 -21
-536 -10 -757 14 -257 19 -274 83 -300 80 -31 210 -7 229 44 6 14 9 94 8 181
-3 164 1 185 43 212 59 38 143 23 168 -30 7 -15 16 -92 20 -172 4 -80 13 -160
20 -178 24 -65 157 -94 239 -53 52 27 59 63 72 375 12 279 -1 803 -22 882 -16
63 -76 86 -199 76z"/>
<path d="M7480 1463 c-19 -2 -49 -15 -66 -28 -26 -20 -33 -33 -39 -80 -9 -74
1 -86 65 -78 47 5 49 5 56 -22 20 -79 -66 -433 -122 -502 -21 -25 -24 -27 -39
-12 -9 9 -23 61 -36 134 -25 147 -34 156 -113 110 -37 -22 -45 -23 -61 -11
-16 12 -20 34 -27 167 -4 85 -12 164 -17 176 -13 28 -52 36 -133 24 -81 -11
-114 -32 -128 -80 -6 -20 -15 -148 -22 -286 -12 -273 0 -702 22 -763 8 -22 25
-39 51 -52 77 -40 219 -16 240 39 7 16 8 103 3 233 -6 195 -6 208 11 215 28
10 71 -46 187 -242 56 -93 113 -183 127 -198 39 -43 93 -67 151 -67 73 0 105
20 124 77 35 109 44 701 16 1074 -7 104 -10 113 -36 140 -25 25 -38 29 -104
32 -41 3 -91 3 -110 0z"/>
<path d="M4075 1420 c-50 -20 -50 -16 -50 -441 0 -342 -2 -400 -15 -413 -14
-14 -23 -10 -89 35 -110 75 -176 109 -210 109 -27 0 -31 -4 -36 -37 -14 -97
-19 -108 -46 -111 -16 -2 -47 9 -78 27 -29 17 -54 31 -56 31 -2 0 -27 13 -55
30 -54 32 -110 40 -110 16 0 -50 154 -252 315 -413 131 -131 138 -132 191 -26
22 42 46 81 55 86 12 7 48 -10 145 -67 71 -43 137 -81 146 -87 35 -18 57 -10
76 28 41 83 77 560 70 945 -3 217 -3 218 -28 242 -41 41 -173 68 -225 46z"/>
<path d="M8601 1401 c-57 -10 -72 -30 -157 -198 -37 -73 -70 -133 -74 -133
-17 0 -38 42 -69 140 -21 65 -74 161 -96 176 -20 13 -42 16 -103 12 -82 -5
-132 -26 -132 -57 0 -9 47 -127 105 -261 58 -135 108 -261 111 -281 5 -28 -3
-56 -32 -125 -20 -49 -41 -93 -45 -99 -4 -5 -43 -81 -88 -168 -99 -193 -102
-217 -30 -237 48 -14 169 -12 198 3 26 13 58 69 111 192 55 129 65 133 109 43
46 -94 100 -188 133 -230 41 -52 69 -51 102 6 45 77 59 72 161 -68 90 -123
101 -122 98 4 -5 186 -95 500 -144 500 -5 0 -32 -21 -61 -46 l-52 -47 -21 26
c-12 14 -36 59 -54 100 -52 127 -51 132 100 436 l131 264 -24 23 c-27 26 -105
37 -177 25z"/>
<path d="M129 1391 c-83 -16 -106 -36 -115 -102 -9 -64 10 -123 43 -138 16 -7
77 -17 138 -23 110 -9 131 -18 115 -48 -31 -57 -74 -230 -96 -381 -14 -100
-14 -121 -3 -144 24 -48 40 -52 114 -26 65 22 67 22 87 4 18 -16 20 -26 14
-103 -20 -289 -20 -267 2 -279 17 -9 25 -7 42 11 87 92 295 492 339 649 28 99
1 123 -126 113 l-82 -7 -11 28 c-12 32 3 127 23 143 7 5 53 12 102 16 158 12
202 24 233 64 20 27 27 48 29 96 5 91 -3 98 -140 113 -141 15 -647 25 -708 14z"/>
<path d="M2500 1395 c-8 -2 -49 -8 -90 -15 -103 -16 -103 -16 -125 -52 -19
-31 -20 -52 -19 -433 1 -439 15 -690 40 -715 11 -11 44 -16 129 -18 94 -3 116
-7 130 -22 15 -17 15 -21 -3 -60 -35 -77 -28 -82 112 -77 122 5 183 13 266 36
117 32 157 44 188 57 18 8 39 14 46 14 17 0 49 36 42 48 -8 14 -79 30 -178 41
-97 11 -158 33 -158 56 0 8 16 39 35 67 68 99 41 118 -167 118 -138 0 -148 1
-173 23 -20 17 -27 34 -32 79 -10 102 38 135 181 122 134 -12 166 15 166 137
0 91 -12 99 -156 99 -141 0 -178 13 -194 68 -16 58 -2 111 34 134 29 18 43 19
261 13 274 -8 269 -10 286 95 14 86 -2 136 -51 164 -33 20 -53 21 -295 23
-143 1 -267 0 -275 -2z"/>
<path d="M6005 1381 c-163 -49 -290 -190 -357 -397 -30 -93 -32 -326 -4 -419
36 -117 87 -206 161 -281 77 -78 108 -97 205 -125 81 -24 118 -24 201 0 164
47 287 178 355 376 39 115 46 295 15 415 -55 221 -192 380 -370 431 -80 23
-127 23 -206 0z m200 -241 c18 -20 18 -23 1 -90 -24 -92 -18 -100 79 -100 115
0 117 -12 34 -208 -43 -101 -67 -147 -140 -267 -65 -106 -74 -117 -96 -113
-21 4 -23 45 -10 190 8 82 7 87 -13 98 -16 9 -32 8 -69 -3 -41 -12 -50 -12
-69 1 -28 18 -29 58 -2 189 30 151 64 245 97 274 58 51 155 66 188 29z"/>
</g>
</svg>
